# xmcd
#
# Track frame offsets:
#	150
#	24623
#	39708
#	56409
#	67671
#	80269
#	89370
#	110652
#	121634
#	136958
#	146684
#	158065
#	171755
#	187321
#	197191
#	207829
#	220162
#	237677
#	249064
#	272775
#	289601
#	301681
#	312136
#	321998
#	332146
#
# Disc length: 4557 seconds
#
# Revision: 0
# Processed by: cddbd v1.5PL3 Copyright (c) Steve Scherf et al.
# Submitted via: dBpowerAMP V4.0
#
DISCID=6911cb19
DTITLE=Sonny Terry and Brownie McGhee - Blues Legends In London
DYEAR=2003
DGENRE=Blues
TTITLE0=Brownie's Blues
TTITLE1=Sonny's Blues
TTITLE2=Auto Mechanic Blues
TTITLE3=Wholesale and Retail
TTITLE4=Black Horse Blues
TTITLE5=I Love You Baby
TTITLE6=Just A Dream
TTITLE7=Hooray (This Woman Is Killing Me)
TTITLE8=Change The Locks On My Door
TTITLE9=You'd Better Mind
TTITLE10=Cornbread, Peas and Black Molasses
TTITLE11=Climbing On Top Of The Hill
TTITLE12=[I've Been] Treated Wrong
TTITLE13=Fox Chase
TTITLE14=Woman's Lover Blues
TTITLE15=Southern Train
TTITLE16=The Way I Feel
TTITLE17=Gone But Not Forgotten
TTITLE18=Betty and Dupree
TTITLE19=No Worries On My Mind
TTITLE20=This Little Light Of Mine
TTITLE21=Glory
TTITLE22=Custard Pie
TTITLE23=Key To The Highway
TTITLE24=If I Could Only Hear My Mother Pray Again
EXTD=
EXTT0=
EXTT1=
EXTT2=
EXTT3=
EXTT4=
EXTT5=
EXTT6=
EXTT7=
EXTT8=
EXTT9=
EXTT10=
EXTT11=
EXTT12=
EXTT13=
EXTT14=
EXTT15=
EXTT16=
EXTT17=
EXTT18=
EXTT19=
EXTT20=
EXTT21=
EXTT22=
EXTT23=
EXTT24=
PLAYORDER=
